<svg width="653" height="151" viewBox="0 0 653 151" fill="none" xmlns="http://www.w3.org/2000/svg">
<g filter="url(#filter0_d_140_73)">
<path d="M6.431 76.643C7.21767 76.9183 8.12233 77.056 9.145 77.056C10.4823 77.056 11.6427 76.879 12.626 76.525C14.16 75.817 15.2417 75.0303 15.871 74.165C16.5397 73.2603 16.933 72.336 17.051 71.392C17.169 70.4087 17.228 68.8157 17.228 66.613V35.638H21.24L21.063 68.501C21.063 73.7323 18.467 76.9773 13.275 78.236C12.095 78.5113 10.915 78.649 9.735 78.649C8.319 78.649 7.04067 78.472 5.9 78.118L6.431 76.643ZM47.6697 78.649C44.3657 78.649 41.3567 77.6853 38.6427 75.758C35.9287 73.8307 33.785 71.215 32.2117 67.911C30.6777 64.607 29.9107 60.9883 29.9107 57.055C29.9107 53.1217 30.6777 49.503 32.2117 46.199C33.785 42.895 35.9287 40.2793 38.6427 38.352C41.3567 36.4247 44.3657 35.461 47.6697 35.461C50.9737 35.461 53.9827 36.4247 56.6967 38.352C59.4107 40.2793 61.5347 42.895 63.0687 46.199C64.642 49.503 65.4287 53.1217 65.4287 57.055C65.4287 60.9883 64.642 64.607 63.0687 67.911C61.5347 71.215 59.4107 73.8307 56.6967 75.758C53.9827 77.6853 50.9737 78.649 47.6697 78.649ZM47.6697 77.056C50.187 77.056 52.488 76.0923 54.5727 74.165C56.6967 72.1983 58.3684 69.6613 59.5877 66.554C60.807 63.4467 61.4167 60.2803 61.4167 57.055C61.4167 53.7903 60.807 50.624 59.5877 47.556C58.4077 44.4487 56.7557 41.9313 54.6317 40.004C52.547 38.0373 50.2264 37.054 47.6697 37.054C45.113 37.054 42.7727 38.0373 40.6487 40.004C38.564 41.9313 36.912 44.4487 35.6927 47.556C34.4734 50.624 33.8637 53.7903 33.8637 57.055C33.8637 60.2803 34.4734 63.4467 35.6927 66.554C36.912 69.6613 38.564 72.1983 40.6487 74.165C42.7727 76.0923 45.113 77.056 47.6697 77.056ZM72.9328 35.638H76.8858V59.002L95.7068 35.638H97.7718L80.8388 56.642L99.1288 78H94.4678L78.4788 59.592L76.8858 61.539V78H72.9328V35.638ZM107.169 35.638H131.123V37.231H111.181V55.757H127.17V57.35H111.181V76.407H132.362V78H107.169V35.638ZM171.552 35.638H175.741L188.19 74.932L200.698 35.638H202.35L189.075 77.528L189.134 77.823H184.945L171.552 35.638ZM210.398 35.638H234.352V37.231H214.41V55.757H230.399V57.35H214.41V76.407H235.591V78H210.398V35.638ZM244.865 35.638H259.733C261.66 35.638 263.489 36.11 265.22 37.054C266.99 37.9587 268.406 39.237 269.468 40.889C270.53 42.541 271.061 44.4093 271.061 46.494C271.061 48.5 270.51 50.3487 269.409 52.04C268.347 53.7313 266.931 55.0687 265.161 56.052C263.43 57.0353 261.581 57.527 259.615 57.527L274.188 78H269.822L255.19 57.527H248.818V78H244.865V35.638ZM258.966 55.934C260.421 55.934 261.758 55.4817 262.978 54.577C264.236 53.633 265.22 52.4333 265.928 50.978C266.675 49.4833 267.049 47.9887 267.049 46.494C267.049 44.9993 266.675 43.544 265.928 42.128C265.22 40.6727 264.236 39.4927 262.978 38.588C261.758 37.6833 260.421 37.231 258.966 37.231H248.818V55.934H258.966ZM282.904 35.638H297.772C299.699 35.638 301.528 36.11 303.259 37.054C305.029 37.9587 306.445 39.237 307.507 40.889C308.569 42.541 309.1 44.4093 309.1 46.494C309.1 48.5 308.549 50.3487 307.448 52.04C306.386 53.7313 304.97 55.0687 303.2 56.052C301.469 57.0353 299.621 57.527 297.654 57.527L312.227 78H307.861L293.229 57.527H286.857V78H282.904V35.638ZM297.005 55.934C298.46 55.934 299.798 55.4817 301.017 54.577C302.276 53.633 303.259 52.4333 303.967 50.978C304.714 49.4833 305.088 47.9887 305.088 46.494C305.088 44.9993 304.714 43.544 303.967 42.128C303.259 40.6727 302.276 39.4927 301.017 38.588C299.798 37.6833 298.46 37.231 297.005 37.231H286.857V55.934H297.005ZM320.943 35.638H344.897V37.231H324.955V55.757H340.944V57.35H324.955V76.407H346.136V78H320.943V35.638ZM355.41 35.638H359.422V76.407H380.544V78H355.41V35.638ZM397.045 78.649C394.881 78.649 392.738 78.118 390.614 77.056C388.529 75.994 386.68 74.3223 385.068 72.041L386.366 71.156C387.742 73.162 389.394 74.6763 391.322 75.699C393.288 76.7217 395.294 77.233 397.34 77.233C399.582 77.233 401.529 76.584 403.181 75.286C404.872 73.988 405.934 72.159 406.367 69.799C406.445 69.2483 406.485 68.855 406.485 68.619C406.485 66.6917 405.698 64.843 404.125 63.073C402.591 61.2637 400.526 59.7887 397.93 58.648C397.379 58.3727 397.045 58.2153 396.927 58.176C394.999 57.2713 393.288 56.347 391.794 55.403C390.299 54.459 388.942 53.1807 387.723 51.568C386.503 49.916 385.894 48.0083 385.894 45.845C385.894 43.2883 386.857 41.1053 388.785 39.296C390.712 37.4473 393.072 36.2673 395.865 35.756C397.045 35.5593 398.028 35.461 398.815 35.461C401.057 35.461 402.964 35.9723 404.538 36.995C406.15 37.9783 407.291 39.237 407.96 40.771L406.485 41.42C405.816 39.886 404.852 38.7257 403.594 37.939C402.335 37.1523 400.919 36.759 399.346 36.759C397.772 36.759 396.258 37.1327 394.803 37.88C393.347 38.6273 392.148 39.709 391.204 41.125C390.299 42.5017 389.847 44.0947 389.847 45.904C389.847 47.674 390.574 49.2277 392.03 50.565C393.524 51.863 395.727 53.1807 398.638 54.518L399.582 54.99C401.745 55.9733 403.554 56.9173 405.01 57.822C406.465 58.7267 407.724 59.9067 408.786 61.362C409.887 62.8173 410.438 64.548 410.438 66.554C410.438 69.268 409.513 71.7067 407.665 73.87C405.855 75.994 403.456 77.4493 400.467 78.236C399.641 78.472 398.5 78.6097 397.045 78.649ZM427.477 37.231H416.739V35.638H442.227V37.231H431.489V78H427.477V37.231Z" fill="white"/>
</g>
<g filter="url(#filter1_d_140_73)">
<path d="M525.734 123.102C527.414 123.69 529.346 123.984 531.53 123.984C534.386 123.984 536.864 123.606 538.964 122.85C542.24 121.338 544.55 119.658 545.894 117.81C547.322 115.878 548.162 113.904 548.414 111.888C548.666 109.788 548.792 106.386 548.792 101.682V35.532H557.36L556.982 105.714C556.982 116.886 551.438 123.816 540.35 126.504C537.83 127.092 535.31 127.386 532.79 127.386C529.766 127.386 527.036 127.008 524.6 126.252L525.734 123.102ZM574.017 35.532H582.963L609.549 119.448L636.261 35.532H639.789L611.439 124.992L611.565 125.622H602.619L574.017 35.532Z" fill="white"/>
</g>
<g filter="url(#filter2_d_140_73)">
<path d="M248.737 123C248.712 122.827 248.7 122.679 248.7 122.556C248.7 122.408 248.7 122.235 248.7 122.038C248.7 121.619 248.712 121.125 248.737 120.558C248.762 119.966 248.811 119.189 248.885 118.227C248.984 117.265 249.119 116.007 249.292 114.453C249.465 112.85 249.6 111.641 249.699 110.827C249.798 110.013 249.872 109.421 249.921 109.051C249.97 108.656 249.995 108.336 249.995 108.089C250.02 107.596 249.983 107.115 249.884 106.646C249.81 106.177 249.514 105.943 248.996 105.943C248.601 105.943 248.145 106.214 247.627 106.757C247.109 107.3 246.665 108.225 246.295 109.532L245.259 109.31C245.333 108.866 245.481 108.36 245.703 107.793C245.95 107.201 246.27 106.621 246.665 106.054C247.06 105.487 247.541 105.018 248.108 104.648C248.675 104.278 249.329 104.093 250.069 104.093C251.179 104.093 251.919 104.475 252.289 105.24C252.659 106.005 252.819 107.028 252.77 108.311C252.745 108.854 252.671 109.458 252.548 110.124C252.449 110.765 252.338 111.444 252.215 112.159H252.326C253.041 110.013 253.781 108.36 254.546 107.201C255.335 106.042 256.125 105.24 256.914 104.796C257.728 104.327 258.53 104.093 259.319 104.093C260.059 104.093 260.676 104.29 261.169 104.685C261.662 105.055 261.909 105.573 261.909 106.239C261.909 106.683 261.749 107.09 261.428 107.46C261.132 107.83 260.725 108.015 260.207 108.015C259.763 108.015 259.381 107.879 259.06 107.608C258.739 107.337 258.554 106.954 258.505 106.461C257.814 106.313 257.136 106.535 256.47 107.127C255.829 107.719 255.212 108.57 254.62 109.68C254.053 110.765 253.547 111.986 253.103 113.343C252.684 114.7 252.351 116.081 252.104 117.487C251.857 118.893 251.734 120.2 251.734 121.409C251.734 121.779 251.734 122.063 251.734 122.26C251.759 122.433 251.783 122.679 251.808 123H248.737ZM273.021 104.093C273.909 104.093 274.747 104.229 275.537 104.5C276.326 104.771 276.967 105.215 277.461 105.832C277.954 106.449 278.201 107.287 278.201 108.348C278.201 109.359 277.855 110.235 277.165 110.975C276.474 111.715 275.574 112.332 274.464 112.825C273.354 113.294 272.17 113.676 270.912 113.972C269.654 114.268 268.445 114.478 267.286 114.601C267.286 116.13 267.434 117.413 267.73 118.449C268.05 119.485 268.519 120.262 269.136 120.78C269.752 121.298 270.542 121.557 271.504 121.557C272.219 121.557 272.934 121.397 273.65 121.076C274.39 120.755 275.093 120.274 275.759 119.633C276.425 118.967 277.029 118.116 277.572 117.08L278.793 117.783C278.102 119.066 277.362 120.126 276.573 120.965C275.783 121.804 274.92 122.42 273.983 122.815C273.045 123.21 272.009 123.407 270.875 123.407C268.531 123.407 266.805 122.679 265.695 121.224C264.585 119.744 264.03 117.808 264.03 115.415C264.03 113.984 264.215 112.591 264.585 111.234C264.955 109.877 265.51 108.669 266.25 107.608C266.99 106.523 267.927 105.672 269.062 105.055C270.196 104.414 271.516 104.093 273.021 104.093ZM272.503 105.351C271.368 105.351 270.431 105.733 269.691 106.498C268.975 107.263 268.42 108.249 268.026 109.458C267.656 110.667 267.421 111.937 267.323 113.269C268.63 113.096 269.876 112.788 271.06 112.344C272.244 111.9 273.218 111.333 273.983 110.642C274.747 109.927 275.13 109.1 275.13 108.163C275.13 107.374 274.908 106.708 274.464 106.165C274.044 105.622 273.391 105.351 272.503 105.351ZM288.359 123.407C287.373 123.407 286.423 123.259 285.51 122.963C284.598 122.642 283.858 122.186 283.29 121.594C282.723 121.002 282.439 120.287 282.439 119.448C282.439 118.905 282.587 118.474 282.883 118.153C283.204 117.808 283.586 117.635 284.03 117.635C284.524 117.635 284.894 117.795 285.14 118.116C285.412 118.437 285.547 118.794 285.547 119.189C285.547 119.362 285.523 119.547 285.473 119.744C285.424 119.941 285.338 120.139 285.214 120.336C285.412 120.879 285.806 121.298 286.398 121.594C286.99 121.89 287.619 122.038 288.285 122.038C289.617 122.038 290.616 121.73 291.282 121.113C291.948 120.496 292.281 119.633 292.281 118.523C292.281 117.857 292.047 117.265 291.578 116.747C291.11 116.229 290.518 115.748 289.802 115.304C289.087 114.835 288.347 114.379 287.582 113.935C286.867 113.491 286.176 113.035 285.51 112.566C284.869 112.097 284.339 111.579 283.919 111.012C283.525 110.445 283.327 109.803 283.327 109.088C283.327 108.175 283.599 107.349 284.141 106.609C284.684 105.844 285.436 105.24 286.398 104.796C287.36 104.327 288.47 104.093 289.728 104.093C290.666 104.093 291.541 104.241 292.355 104.537C293.194 104.833 293.872 105.252 294.39 105.795C294.933 106.338 295.204 106.979 295.204 107.719C295.204 108.237 295.056 108.656 294.76 108.977C294.464 109.273 294.094 109.421 293.65 109.421C293.206 109.421 292.849 109.273 292.577 108.977C292.306 108.681 292.17 108.336 292.17 107.941C292.17 107.744 292.195 107.559 292.244 107.386C292.294 107.189 292.38 106.991 292.503 106.794C292.38 106.375 292.072 106.029 291.578 105.758C291.11 105.462 290.456 105.314 289.617 105.314C289.075 105.314 288.544 105.437 288.026 105.684C287.508 105.931 287.077 106.276 286.731 106.72C286.386 107.139 286.213 107.645 286.213 108.237C286.213 108.706 286.349 109.137 286.62 109.532C286.916 109.927 287.299 110.297 287.767 110.642C288.236 110.987 288.742 111.333 289.284 111.678C290.172 112.196 291.085 112.751 292.022 113.343C292.96 113.91 293.737 114.564 294.353 115.304C294.995 116.044 295.315 116.944 295.315 118.005C295.315 119.041 295.019 119.966 294.427 120.78C293.86 121.594 293.046 122.235 291.985 122.704C290.949 123.173 289.741 123.407 288.359 123.407ZM303.187 104.093C304.223 104.093 305 104.451 305.518 105.166C306.036 105.857 306.295 106.782 306.295 107.941C306.295 108.681 306.221 109.532 306.073 110.494C305.949 111.431 305.789 112.443 305.592 113.528C305.394 114.613 305.222 115.711 305.074 116.821C304.95 117.906 304.889 118.967 304.889 120.003C304.889 120.496 304.975 120.879 305.148 121.15C305.345 121.421 305.641 121.557 306.036 121.557C306.455 121.557 306.911 121.286 307.405 120.743C307.923 120.2 308.367 119.275 308.737 117.968L309.773 118.19C309.674 118.708 309.501 119.275 309.255 119.892C309.033 120.484 308.737 121.051 308.367 121.594C307.997 122.112 307.54 122.544 306.998 122.889C306.48 123.234 305.875 123.407 305.185 123.407C304.05 123.407 303.211 123.111 302.669 122.519C302.126 121.927 301.855 121.064 301.855 119.929C301.855 118.844 301.929 117.795 302.077 116.784C302.225 115.748 302.385 114.737 302.558 113.75C302.755 112.739 302.928 111.727 303.076 110.716C303.224 109.705 303.298 108.669 303.298 107.608C303.298 107.287 303.224 106.93 303.076 106.535C302.952 106.14 302.681 105.943 302.262 105.943C301.867 105.943 301.411 106.214 300.893 106.757C300.375 107.3 299.931 108.225 299.561 109.532L298.525 109.31C298.599 108.866 298.747 108.36 298.969 107.793C299.191 107.201 299.487 106.621 299.857 106.054C300.251 105.487 300.72 105.018 301.263 104.648C301.805 104.278 302.447 104.093 303.187 104.093ZM305.296 96.101C305.863 96.101 306.332 96.2983 306.702 96.693C307.072 97.063 307.257 97.5687 307.257 98.21C307.257 98.8267 307.059 99.3323 306.665 99.727C306.27 100.097 305.801 100.282 305.259 100.282C304.716 100.282 304.247 100.097 303.853 99.727C303.483 99.3323 303.298 98.8267 303.298 98.21C303.298 97.5687 303.495 97.063 303.89 96.693C304.284 96.2983 304.753 96.101 305.296 96.101ZM328.873 123.407C327.713 123.407 326.924 123.099 326.505 122.482C326.085 121.865 325.876 120.99 325.876 119.855C325.876 119.164 325.925 118.35 326.024 117.413C326.147 116.476 326.283 115.477 326.431 114.416C326.603 113.355 326.739 112.282 326.838 111.197C326.961 110.112 327.023 109.076 327.023 108.089C327.023 107.793 326.973 107.472 326.875 107.127C326.801 106.782 326.64 106.486 326.394 106.239C326.147 105.968 325.777 105.832 325.284 105.832C324.593 105.832 323.902 106.153 323.212 106.794C322.521 107.435 321.867 108.299 321.251 109.384C320.634 110.469 320.079 111.678 319.586 113.01C319.092 114.317 318.698 115.674 318.402 117.08C318.13 118.461 317.995 119.781 317.995 121.039C317.995 121.409 317.995 121.754 317.995 122.075C318.019 122.371 318.044 122.679 318.069 123H314.961C314.936 122.827 314.924 122.679 314.924 122.556C314.924 122.408 314.924 122.235 314.924 122.038C314.924 121.619 314.948 121.138 314.998 120.595C315.047 120.028 315.121 119.288 315.22 118.375C315.343 117.438 315.491 116.192 315.664 114.638C315.836 113.183 315.96 112.048 316.034 111.234C316.132 110.42 316.206 109.803 316.256 109.384C316.305 108.94 316.33 108.607 316.33 108.385C316.354 108.138 316.367 107.879 316.367 107.608C316.367 107.164 316.305 106.782 316.182 106.461C316.058 106.116 315.787 105.943 315.368 105.943C314.973 105.943 314.517 106.214 313.999 106.757C313.481 107.3 313.037 108.225 312.667 109.532L311.631 109.31C311.705 108.866 311.853 108.36 312.075 107.793C312.321 107.201 312.642 106.621 313.037 106.054C313.431 105.487 313.912 105.018 314.48 104.648C315.047 104.278 315.701 104.093 316.441 104.093C317.279 104.093 317.896 104.327 318.291 104.796C318.71 105.24 318.969 105.82 319.068 106.535C319.191 107.25 319.228 108.015 319.179 108.829C319.129 109.52 319.043 110.186 318.92 110.827C318.821 111.468 318.722 112.036 318.624 112.529H318.735C319.573 110.284 320.4 108.558 321.214 107.349C322.028 106.116 322.829 105.265 323.619 104.796C324.433 104.327 325.234 104.093 326.024 104.093C327.01 104.093 327.8 104.315 328.392 104.759C328.984 105.203 329.403 105.795 329.65 106.535C329.921 107.25 330.057 108.04 330.057 108.903C330.057 110.26 329.958 111.653 329.761 113.084C329.588 114.49 329.403 115.797 329.206 117.006C329.033 118.19 328.947 119.14 328.947 119.855C328.947 120.299 328.996 120.694 329.095 121.039C329.218 121.384 329.502 121.557 329.946 121.557C330.365 121.557 330.821 121.298 331.315 120.78C331.833 120.237 332.277 119.3 332.647 117.968L333.683 118.227C333.609 118.646 333.448 119.152 333.202 119.744C332.98 120.336 332.671 120.916 332.277 121.483C331.882 122.026 331.401 122.482 330.834 122.852C330.266 123.222 329.613 123.407 328.873 123.407ZM358.248 104.093C358.988 104.093 359.802 104.155 360.69 104.278C361.578 104.377 362.417 104.525 363.206 104.722C363.009 106.202 362.811 107.682 362.614 109.162C362.441 110.617 362.269 112.011 362.096 113.343C361.948 114.65 361.825 115.834 361.726 116.895C361.627 117.931 361.578 118.745 361.578 119.337C361.578 119.83 361.615 120.324 361.689 120.817C361.763 121.31 362.071 121.557 362.614 121.557C363.033 121.557 363.49 121.286 363.983 120.743C364.501 120.2 364.945 119.275 365.315 117.968L366.351 118.19C366.277 118.634 366.117 119.152 365.87 119.744C365.648 120.311 365.34 120.879 364.945 121.446C364.55 122.013 364.069 122.482 363.502 122.852C362.935 123.222 362.281 123.407 361.541 123.407C360.554 123.407 359.851 123.099 359.432 122.482C359.013 121.865 358.803 121.064 358.803 120.077C358.803 119.362 358.865 118.585 358.988 117.746C359.136 116.907 359.296 116.032 359.469 115.119H359.358C358.766 116.944 358.149 118.412 357.508 119.522C356.891 120.607 356.262 121.434 355.621 122.001C355.004 122.568 354.4 122.938 353.808 123.111C353.216 123.308 352.661 123.407 352.143 123.407C350.811 123.407 349.689 122.914 348.776 121.927C347.888 120.94 347.444 119.288 347.444 116.969C347.444 115.242 347.666 113.602 348.11 112.048C348.554 110.494 349.22 109.125 350.108 107.941C351.021 106.732 352.155 105.795 353.512 105.129C354.869 104.438 356.447 104.093 358.248 104.093ZM357.101 105.425C355.991 105.425 355.017 105.733 354.178 106.35C353.364 106.967 352.686 107.805 352.143 108.866C351.6 109.902 351.193 111.074 350.922 112.381C350.675 113.664 350.552 114.983 350.552 116.34C350.552 117.919 350.725 119.226 351.07 120.262C351.415 121.273 352.044 121.779 352.957 121.779C353.623 121.779 354.289 121.446 354.955 120.78C355.646 120.114 356.287 119.226 356.879 118.116C357.471 116.981 358.001 115.723 358.47 114.342C358.939 112.936 359.309 111.505 359.58 110.05C359.851 108.595 359.987 107.201 359.987 105.869C359.617 105.721 359.185 105.61 358.692 105.536C358.199 105.462 357.668 105.425 357.101 105.425ZM371.193 123C371.168 122.827 371.156 122.679 371.156 122.556C371.156 122.408 371.156 122.235 371.156 122.038C371.156 121.619 371.168 121.125 371.193 120.558C371.217 119.966 371.267 119.189 371.341 118.227C371.439 117.265 371.575 116.007 371.748 114.453C371.92 112.85 372.056 111.641 372.155 110.827C372.253 110.013 372.327 109.421 372.377 109.051C372.426 108.656 372.451 108.336 372.451 108.089C372.475 107.596 372.438 107.115 372.34 106.646C372.266 106.177 371.97 105.943 371.452 105.943C371.057 105.943 370.601 106.214 370.083 106.757C369.565 107.3 369.121 108.225 368.751 109.532L367.715 109.31C367.789 108.866 367.937 108.36 368.159 107.793C368.405 107.201 368.726 106.621 369.121 106.054C369.515 105.487 369.996 105.018 370.564 104.648C371.131 104.278 371.785 104.093 372.525 104.093C373.635 104.093 374.375 104.475 374.745 105.24C375.115 106.005 375.275 107.028 375.226 108.311C375.201 108.854 375.127 109.458 375.004 110.124C374.905 110.765 374.794 111.444 374.671 112.159H374.782C375.497 110.013 376.237 108.36 377.002 107.201C377.791 106.042 378.58 105.24 379.37 104.796C380.184 104.327 380.985 104.093 381.775 104.093C382.515 104.093 383.131 104.29 383.625 104.685C384.118 105.055 384.365 105.573 384.365 106.239C384.365 106.683 384.204 107.09 383.884 107.46C383.588 107.83 383.181 108.015 382.663 108.015C382.219 108.015 381.836 107.879 381.516 107.608C381.195 107.337 381.01 106.954 380.961 106.461C380.27 106.313 379.592 106.535 378.926 107.127C378.284 107.719 377.668 108.57 377.076 109.68C376.508 110.765 376.003 111.986 375.559 113.343C375.139 114.7 374.806 116.081 374.56 117.487C374.313 118.893 374.19 120.2 374.19 121.409C374.19 121.779 374.19 122.063 374.19 122.26C374.214 122.433 374.239 122.679 374.264 123H371.193ZM393.432 99.283L392.766 104.5H398.649L398.538 105.906L392.618 105.98C392.52 107.016 392.396 108.089 392.248 109.199C392.125 110.284 392.014 111.37 391.915 112.455C391.817 113.54 391.73 114.589 391.656 115.6C391.582 116.587 391.545 117.487 391.545 118.301C391.545 118.77 391.57 119.263 391.619 119.781C391.693 120.274 391.854 120.694 392.1 121.039C392.347 121.36 392.742 121.52 393.284 121.52C393.531 121.52 393.827 121.471 394.172 121.372C394.542 121.273 394.949 121.039 395.393 120.669C395.837 120.299 396.294 119.719 396.762 118.93L397.724 119.559C397.009 120.817 396.232 121.779 395.393 122.445C394.579 123.086 393.58 123.407 392.396 123.407C391.434 123.407 390.67 123.21 390.102 122.815C389.56 122.396 389.165 121.853 388.918 121.187C388.672 120.521 388.548 119.806 388.548 119.041C388.548 118.104 388.585 116.969 388.659 115.637C388.733 114.28 388.844 112.788 388.992 111.16C389.14 109.507 389.313 107.793 389.51 106.017L386.217 106.054L386.328 104.5C388.03 104.5 389.288 104.044 390.102 103.131C390.916 102.218 391.558 100.936 392.026 99.283H393.432ZM404.912 104.093C405.948 104.093 406.725 104.451 407.243 105.166C407.761 105.857 408.02 106.782 408.02 107.941C408.02 108.681 407.946 109.532 407.798 110.494C407.675 111.431 407.514 112.443 407.317 113.528C407.12 114.613 406.947 115.711 406.799 116.821C406.676 117.906 406.614 118.967 406.614 120.003C406.614 120.496 406.7 120.879 406.873 121.15C407.07 121.421 407.366 121.557 407.761 121.557C408.18 121.557 408.637 121.286 409.13 120.743C409.648 120.2 410.092 119.275 410.462 117.968L411.498 118.19C411.399 118.708 411.227 119.275 410.98 119.892C410.758 120.484 410.462 121.051 410.092 121.594C409.722 122.112 409.266 122.544 408.723 122.889C408.205 123.234 407.601 123.407 406.91 123.407C405.775 123.407 404.937 123.111 404.394 122.519C403.851 121.927 403.58 121.064 403.58 119.929C403.58 118.844 403.654 117.795 403.802 116.784C403.95 115.748 404.11 114.737 404.283 113.75C404.48 112.739 404.653 111.727 404.801 110.716C404.949 109.705 405.023 108.669 405.023 107.608C405.023 107.287 404.949 106.93 404.801 106.535C404.678 106.14 404.406 105.943 403.987 105.943C403.592 105.943 403.136 106.214 402.618 106.757C402.1 107.3 401.656 108.225 401.286 109.532L400.25 109.31C400.324 108.866 400.472 108.36 400.694 107.793C400.916 107.201 401.212 106.621 401.582 106.054C401.977 105.487 402.445 105.018 402.988 104.648C403.531 104.278 404.172 104.093 404.912 104.093ZM407.021 96.101C407.588 96.101 408.057 96.2983 408.427 96.693C408.797 97.063 408.982 97.5687 408.982 98.21C408.982 98.8267 408.785 99.3323 408.39 99.727C407.995 100.097 407.527 100.282 406.984 100.282C406.441 100.282 405.973 100.097 405.578 99.727C405.208 99.3323 405.023 98.8267 405.023 98.21C405.023 97.5687 405.22 97.063 405.615 96.693C406.01 96.2983 406.478 96.101 407.021 96.101ZM420.127 123.407C419.14 123.407 418.191 123.259 417.278 122.963C416.365 122.642 415.625 122.186 415.058 121.594C414.491 121.002 414.207 120.287 414.207 119.448C414.207 118.905 414.355 118.474 414.651 118.153C414.972 117.808 415.354 117.635 415.798 117.635C416.291 117.635 416.661 117.795 416.908 118.116C417.179 118.437 417.315 118.794 417.315 119.189C417.315 119.362 417.29 119.547 417.241 119.744C417.192 119.941 417.105 120.139 416.982 120.336C417.179 120.879 417.574 121.298 418.166 121.594C418.758 121.89 419.387 122.038 420.053 122.038C421.385 122.038 422.384 121.73 423.05 121.113C423.716 120.496 424.049 119.633 424.049 118.523C424.049 117.857 423.815 117.265 423.346 116.747C422.877 116.229 422.285 115.748 421.57 115.304C420.855 114.835 420.115 114.379 419.35 113.935C418.635 113.491 417.944 113.035 417.278 112.566C416.637 112.097 416.106 111.579 415.687 111.012C415.292 110.445 415.095 109.803 415.095 109.088C415.095 108.175 415.366 107.349 415.909 106.609C416.452 105.844 417.204 105.24 418.166 104.796C419.128 104.327 420.238 104.093 421.496 104.093C422.433 104.093 423.309 104.241 424.123 104.537C424.962 104.833 425.64 105.252 426.158 105.795C426.701 106.338 426.972 106.979 426.972 107.719C426.972 108.237 426.824 108.656 426.528 108.977C426.232 109.273 425.862 109.421 425.418 109.421C424.974 109.421 424.616 109.273 424.345 108.977C424.074 108.681 423.938 108.336 423.938 107.941C423.938 107.744 423.963 107.559 424.012 107.386C424.061 107.189 424.148 106.991 424.271 106.794C424.148 106.375 423.839 106.029 423.346 105.758C422.877 105.462 422.224 105.314 421.385 105.314C420.842 105.314 420.312 105.437 419.794 105.684C419.276 105.931 418.844 106.276 418.499 106.72C418.154 107.139 417.981 107.645 417.981 108.237C417.981 108.706 418.117 109.137 418.388 109.532C418.684 109.927 419.066 110.297 419.535 110.642C420.004 110.987 420.509 111.333 421.052 111.678C421.94 112.196 422.853 112.751 423.79 113.343C424.727 113.91 425.504 114.564 426.121 115.304C426.762 116.044 427.083 116.944 427.083 118.005C427.083 119.041 426.787 119.966 426.195 120.78C425.628 121.594 424.814 122.235 423.753 122.704C422.717 123.173 421.508 123.407 420.127 123.407ZM438.062 99.283L437.396 104.5H443.279L443.168 105.906L437.248 105.98C437.15 107.016 437.026 108.089 436.878 109.199C436.755 110.284 436.644 111.37 436.545 112.455C436.447 113.54 436.36 114.589 436.286 115.6C436.212 116.587 436.175 117.487 436.175 118.301C436.175 118.77 436.2 119.263 436.249 119.781C436.323 120.274 436.484 120.694 436.73 121.039C436.977 121.36 437.372 121.52 437.914 121.52C438.161 121.52 438.457 121.471 438.802 121.372C439.172 121.273 439.579 121.039 440.023 120.669C440.467 120.299 440.924 119.719 441.392 118.93L442.354 119.559C441.639 120.817 440.862 121.779 440.023 122.445C439.209 123.086 438.21 123.407 437.026 123.407C436.064 123.407 435.3 123.21 434.732 122.815C434.19 122.396 433.795 121.853 433.548 121.187C433.302 120.521 433.178 119.806 433.178 119.041C433.178 118.104 433.215 116.969 433.289 115.637C433.363 114.28 433.474 112.788 433.622 111.16C433.77 109.507 433.943 107.793 434.14 106.017L430.847 106.054L430.958 104.5C432.66 104.5 433.918 104.044 434.732 103.131C435.546 102.218 436.188 100.936 436.656 99.283H438.062Z" fill="white"/>
</g>
<g filter="url(#filter3_d_140_73)">
<rect x="484" y="35" width="4" height="93" fill="white"/>
</g>
<defs>
<filter id="filter0_d_140_73" x="1.8999" y="33.4611" width="444.327" height="51.188" filterUnits="userSpaceOnUse" color-interpolation-filters="sRGB">
<feFlood flood-opacity="0" result="BackgroundImageFix"/>
<feColorMatrix in="SourceAlpha" type="matrix" values="0 0 0 0 0 0 0 0 0 0 0 0 0 0 0 0 0 0 127 0" result="hardAlpha"/>
<feOffset dy="2"/>
<feGaussianBlur stdDeviation="2"/>
<feComposite in2="hardAlpha" operator="out"/>
<feColorMatrix type="matrix" values="0 0 0 0 0 0 0 0 0 0 0 0 0 0 0 0 0 0 0.51 0"/>
<feBlend mode="normal" in2="BackgroundImageFix" result="effect1_dropShadow_140_73"/>
<feBlend mode="normal" in="SourceGraphic" in2="effect1_dropShadow_140_73" result="shape"/>
</filter>
<filter id="filter1_d_140_73" x="520.6" y="33.532" width="123.188" height="99.854" filterUnits="userSpaceOnUse" color-interpolation-filters="sRGB">
<feFlood flood-opacity="0" result="BackgroundImageFix"/>
<feColorMatrix in="SourceAlpha" type="matrix" values="0 0 0 0 0 0 0 0 0 0 0 0 0 0 0 0 0 0 127 0" result="hardAlpha"/>
<feOffset dy="2"/>
<feGaussianBlur stdDeviation="2"/>
<feComposite in2="hardAlpha" operator="out"/>
<feColorMatrix type="matrix" values="0 0 0 0 0 0 0 0 0 0 0 0 0 0 0 0 0 0 0.51 0"/>
<feBlend mode="normal" in2="BackgroundImageFix" result="effect1_dropShadow_140_73"/>
<feBlend mode="normal" in="SourceGraphic" in2="effect1_dropShadow_140_73" result="shape"/>
</filter>
<filter id="filter2_d_140_73" x="241.259" y="94.101" width="206.021" height="35.306" filterUnits="userSpaceOnUse" color-interpolation-filters="sRGB">
<feFlood flood-opacity="0" result="BackgroundImageFix"/>
<feColorMatrix in="SourceAlpha" type="matrix" values="0 0 0 0 0 0 0 0 0 0 0 0 0 0 0 0 0 0 127 0" result="hardAlpha"/>
<feOffset dy="2"/>
<feGaussianBlur stdDeviation="2"/>
<feComposite in2="hardAlpha" operator="out"/>
<feColorMatrix type="matrix" values="0 0 0 0 0 0 0 0 0 0 0 0 0 0 0 0 0 0 0.51 0"/>
<feBlend mode="normal" in2="BackgroundImageFix" result="effect1_dropShadow_140_73"/>
<feBlend mode="normal" in="SourceGraphic" in2="effect1_dropShadow_140_73" result="shape"/>
</filter>
<filter id="filter3_d_140_73" x="480" y="33" width="12" height="101" filterUnits="userSpaceOnUse" color-interpolation-filters="sRGB">
<feFlood flood-opacity="0" result="BackgroundImageFix"/>
<feColorMatrix in="SourceAlpha" type="matrix" values="0 0 0 0 0 0 0 0 0 0 0 0 0 0 0 0 0 0 127 0" result="hardAlpha"/>
<feOffset dy="2"/>
<feGaussianBlur stdDeviation="2"/>
<feComposite in2="hardAlpha" operator="out"/>
<feColorMatrix type="matrix" values="0 0 0 0 0 0 0 0 0 0 0 0 0 0 0 0 0 0 0.51 0"/>
<feBlend mode="normal" in2="BackgroundImageFix" result="effect1_dropShadow_140_73"/>
<feBlend mode="normal" in="SourceGraphic" in2="effect1_dropShadow_140_73" result="shape"/>
</filter>
</defs>
</svg>
